<?xml version="1.0" encoding="UTF-8"?>
<!-- Generator: Adobe Illustrator 22.1.0, SVG Export Plug-In . SVG Version: 6.00 Build 0)  -->
<svg xmlns="http://www.w3.org/2000/svg" enable-background="new 0 0 868.6 481" id="图层_1" version="1.1" viewBox="0 0 868.6 481" x="0px" xml:space="preserve" y="0px"><script xmlns=""/><script xmlns=""/>
<g>
	<linearGradient gradientUnits="userSpaceOnUse" id="SVGID_1_" x1="277.76" x2="1428.1" y1="217.7" y2="713.05">
		<stop offset="0" stop-color="#FFE0A0"/>
		<stop offset="1" stop-color="#B67400"/>
	</linearGradient>
	<path d="m823.7 362.6c-8.7-0.1-17.3 1.5-24.4 5.9-17.4 11-19.2 32.7-9.5 41.7 11.7 10.6 36.8 1.1 26.1-19.7 5 3.2 8.4 8.7 8.4 14-0.3 29.5-55.3 23.7-46.1-18.2 2.3-10.7 10.3-21.4 22.8-26.6-12.2 0.4-21.3-0.3-25.5-10.8-7.7-19.6-29.1-32-51.4-26.2-1-2.4-15.1-50.7-90.2-50.7-21.3 0-58.8 9.5-69.8 24.9-55.4-4.9-135.8 4.4-181 2.7-12-0.4-16.4-11.8-13.3-20.6-44.3 0.3-113.6-4.4-113.6-48.6 0-7.1 2.4-14.1 6.6-20.2-0.4-0.3-0.8-0.5-1.3-0.8-19.4 28.8-79.3 30.2-79.3 30.2s2.4 52.2 53.2 52.2h90.6c-12.3 10.9-8 36.3 13.6 36.5h227.5c0.4 0.1 39.4 0.4 56.2 6.1 4-21.1-15-31.3-44.7-35.8 41.7-1.4 95.9-0.7 95.9 36.2 0 3.6-0.9 7.9-2.4 11.7 18.8 8.7 23.8 22.8 23.8 35.4 0 22.3-21.1 36.2-40.7 36.2-20.3 0-33.9-14.3-33.9-27.7 0-13.1 12.3-22.2 26.7-19.3 0 0-21.7 4.8-19.4 19.3 1.3 8.2 9.5 20.4 26.6 20.4 16.1 0 33.4-11 33.4-28.9 0-34.5-83-36.4-111.1-33.5-63.6 6.7-57.6 107.7 7 107.7 31.4-0.2 45.2 0.1 52.9 0 21.3-0.2 22 24.9 56.6 24.9 16.9 0 31.8-8.1 41.2-20.6 18.6 15.7 46.8 11.7 60.2-8.7 7.4-11.2 21.4-7 29.4-7.8 19.9 0 38.2-13.2 42.6-32.6 5.8-25.8-9.3-48.5-43.7-48.7z" fill="url(#SVGID_1_)"/>
	<linearGradient gradientUnits="userSpaceOnUse" id="SVGID_2_" x1="426.81" x2="890.88" y1="89.505" y2="289.34">
		<stop offset="0" stop-color="#FFE0A0"/>
		<stop offset="1" stop-color="#B67400"/>
	</linearGradient>
	<path d="m444.7 96.3c38.9-2.4 76.4 11.2 76.4 47.5 0 32.5-44.3 44.9-71.8 48.4 23.2 31.5 115.5 28.1 133-6.9 4.9-9.9 13.8-7.2 44.9-7.2 22.6 0 43.4-15 48.4-37.1 7-31.1-16.8-59-46.8-59h-33c-4.5 0-8.4-2.9-10.1-7-25.6-59.6-154.9-39.1-178.7-13.1-4.6 4.5-3.9 5.4-6.8 8.7 17.3 3 32.4 9.6 44.5 25.7z" fill="url(#SVGID_2_)"/>
	<linearGradient gradientUnits="userSpaceOnUse" id="SVGID_3_" x1="292.42" x2="666.24" y1="223.09" y2="384.06">
		<stop offset="0" stop-color="#FFE0A0"/>
		<stop offset="1" stop-color="#B67400"/>
	</linearGradient>
	<path d="m312.4 226.3c-16-0.2-30.6-4.2-43.5-12-3.4 4.9-5.3 10.5-5.3 16.1 0 22.1 21.3 33.9 48.2 38.8 21.3 3.8 46.7 2.7 64.1 2.6 6.4-0.4 113.7 2.5 115.6-2.6 0.4-1-1.1-1.8-1.7-2.1-3.7-1.6-8.7-1.4-12.6-1.7-12.1-0.7-93.1-1.6-105.2-1.7-8.4-0.1-16.7-0.1-25.1-0.1-11 0-22.3 0.7-32.2-4.8-6.4-3.5-12.2-9.7-12.6-17.4-0.3-7 4.3-12.3 10.3-15.1z" fill="url(#SVGID_3_)"/>
	<linearGradient gradientUnits="userSpaceOnUse" id="SVGID_4_" x1="81.113" x2="877.09" y1="71.178" y2="413.94">
		<stop offset="0" stop-color="#FFE0A0"/>
		<stop offset="1" stop-color="#B67400"/>
	</linearGradient>
	<path d="m258.2 202.1l2.3-2.8c2.5 1.2 28 30.5 83.6 15.3 0 0 19.3-4.5 32.7-24.5 4.2-6.2 5.3-4.2 60-4.2 20-0.8 77-10.1 77-42.2 0-48.5-71.9-39.7-72.6-39.9l-1.2-1.7c-22.7-31.9-60.8-25.1-90.1-26.8 63.6 32.2 42.1 77.7-19.3 77.7-9.1 0-19.1-0.7-28.9-2.1-24.7 34.2-148.6 24.9-148.6-28.1 0-25.2 30.9-36.5 61.5-36.5 21.2 0 54.8 7.3 54.8 26.8 0 22.1-32.7 38.1-51.4 8.7 0 0 16 10.9 29 9.2 15.2-1.9 17.8-22.5 4.3-29.8-9.9-5.4-24.8-7.7-36.7-7.7-26.1 0-54.2 9.1-54.2 29.2 0 45.5 119 53.1 136.3 22.4l1.2-2.2c2.3 0.3 14.9 2.7 32.7 2.7 43.3 0 71.7-25.8 30-55.4-28.1-19.9-35.6-11-48.1-18.6-8.9-5.3-17.3-71.6-94.3-71.6-90 0-85.5 66.5-131 68-60 2-79.9 27.5-86 53-8.6 36.7 29.6 79.2 64.9 79.2 33-0.2 52.4 3 58.9 2.7 13.4 15.6 23.7 21.7 35.2 25.6 28.7 11.3 76.2-0.4 98-26.4z" fill="url(#SVGID_4_)"/>
</g>
</svg>